<mxfile host="app.diagrams.net" modified="2023-12-23T21:49:31.762Z" agent="Mozilla/5.0 (Windows NT 10.0; Win64; x64) AppleWebKit/537.36 (KHTML, like Gecko) Chrome/120.0.0.0 Safari/537.36" etag="aOkoWuVShAZDBsvepEQS" version="22.1.11" type="device">
  <diagram name="Sayfa -1" id="hMAxGwuRCZgqR3DhVOfI">
    <mxGraphModel dx="820" dy="798" grid="1" gridSize="10" guides="1" tooltips="1" connect="1" arrows="1" fold="1" page="1" pageScale="1" pageWidth="827" pageHeight="1169" math="0" shadow="0">
      <root>
        <mxCell id="0" />
        <mxCell id="1" parent="0" />
        <mxCell id="zCVWpWv3V7vRvDYMl9wr-4" style="edgeStyle=orthogonalEdgeStyle;rounded=0;orthogonalLoop=1;jettySize=auto;html=1;exitX=0.5;exitY=1;exitDx=0;exitDy=0;entryX=0.5;entryY=0;entryDx=0;entryDy=0;" edge="1" parent="1" source="zCVWpWv3V7vRvDYMl9wr-1" target="zCVWpWv3V7vRvDYMl9wr-2">
          <mxGeometry relative="1" as="geometry" />
        </mxCell>
        <mxCell id="zCVWpWv3V7vRvDYMl9wr-1" value="Başla" style="ellipse;whiteSpace=wrap;html=1;" vertex="1" parent="1">
          <mxGeometry x="354" y="10" width="120" height="50" as="geometry" />
        </mxCell>
        <mxCell id="zCVWpWv3V7vRvDYMl9wr-5" style="edgeStyle=orthogonalEdgeStyle;rounded=0;orthogonalLoop=1;jettySize=auto;html=1;exitX=0.5;exitY=1;exitDx=0;exitDy=0;entryX=0.5;entryY=0;entryDx=0;entryDy=0;" edge="1" parent="1" source="zCVWpWv3V7vRvDYMl9wr-2" target="zCVWpWv3V7vRvDYMl9wr-3">
          <mxGeometry relative="1" as="geometry" />
        </mxCell>
        <mxCell id="zCVWpWv3V7vRvDYMl9wr-2" value="let sayi" style="shape=parallelogram;perimeter=parallelogramPerimeter;whiteSpace=wrap;html=1;fixedSize=1;" vertex="1" parent="1">
          <mxGeometry x="354" y="80" width="120" height="60" as="geometry" />
        </mxCell>
        <mxCell id="zCVWpWv3V7vRvDYMl9wr-11" style="edgeStyle=orthogonalEdgeStyle;rounded=0;orthogonalLoop=1;jettySize=auto;html=1;exitX=0;exitY=0.5;exitDx=0;exitDy=0;entryX=0.5;entryY=0;entryDx=0;entryDy=0;" edge="1" parent="1" source="zCVWpWv3V7vRvDYMl9wr-3" target="zCVWpWv3V7vRvDYMl9wr-6">
          <mxGeometry relative="1" as="geometry" />
        </mxCell>
        <mxCell id="zCVWpWv3V7vRvDYMl9wr-13" value="true" style="edgeLabel;html=1;align=center;verticalAlign=middle;resizable=0;points=[];" vertex="1" connectable="0" parent="zCVWpWv3V7vRvDYMl9wr-11">
          <mxGeometry x="-0.3433" y="-1" relative="1" as="geometry">
            <mxPoint as="offset" />
          </mxGeometry>
        </mxCell>
        <mxCell id="zCVWpWv3V7vRvDYMl9wr-12" style="edgeStyle=orthogonalEdgeStyle;rounded=0;orthogonalLoop=1;jettySize=auto;html=1;exitX=1;exitY=0.5;exitDx=0;exitDy=0;entryX=0.5;entryY=0;entryDx=0;entryDy=0;" edge="1" parent="1" source="zCVWpWv3V7vRvDYMl9wr-3" target="zCVWpWv3V7vRvDYMl9wr-7">
          <mxGeometry relative="1" as="geometry" />
        </mxCell>
        <mxCell id="zCVWpWv3V7vRvDYMl9wr-14" value="false" style="edgeLabel;html=1;align=center;verticalAlign=middle;resizable=0;points=[];" vertex="1" connectable="0" parent="zCVWpWv3V7vRvDYMl9wr-12">
          <mxGeometry x="-0.3529" y="1" relative="1" as="geometry">
            <mxPoint as="offset" />
          </mxGeometry>
        </mxCell>
        <mxCell id="zCVWpWv3V7vRvDYMl9wr-3" value="sayi % 2 == 0" style="rhombus;whiteSpace=wrap;html=1;" vertex="1" parent="1">
          <mxGeometry x="354" y="170" width="120" height="120" as="geometry" />
        </mxCell>
        <mxCell id="zCVWpWv3V7vRvDYMl9wr-10" style="edgeStyle=orthogonalEdgeStyle;rounded=0;orthogonalLoop=1;jettySize=auto;html=1;exitX=1;exitY=0.5;exitDx=0;exitDy=0;" edge="1" parent="1" source="zCVWpWv3V7vRvDYMl9wr-6">
          <mxGeometry relative="1" as="geometry">
            <mxPoint x="410" y="360" as="targetPoint" />
            <Array as="points">
              <mxPoint x="410" y="330" />
            </Array>
          </mxGeometry>
        </mxCell>
        <mxCell id="zCVWpWv3V7vRvDYMl9wr-6" value="&quot;Çift&quot;" style="shape=document;whiteSpace=wrap;html=1;boundedLbl=1;" vertex="1" parent="1">
          <mxGeometry x="220" y="290" width="120" height="80" as="geometry" />
        </mxCell>
        <mxCell id="zCVWpWv3V7vRvDYMl9wr-9" style="edgeStyle=orthogonalEdgeStyle;rounded=0;orthogonalLoop=1;jettySize=auto;html=1;exitX=0;exitY=0.5;exitDx=0;exitDy=0;entryX=0.5;entryY=0;entryDx=0;entryDy=0;" edge="1" parent="1" source="zCVWpWv3V7vRvDYMl9wr-7" target="zCVWpWv3V7vRvDYMl9wr-8">
          <mxGeometry relative="1" as="geometry" />
        </mxCell>
        <mxCell id="zCVWpWv3V7vRvDYMl9wr-7" value="&quot;Tek&quot;" style="shape=document;whiteSpace=wrap;html=1;boundedLbl=1;" vertex="1" parent="1">
          <mxGeometry x="490" y="290" width="120" height="80" as="geometry" />
        </mxCell>
        <mxCell id="zCVWpWv3V7vRvDYMl9wr-8" value="Bitiş&lt;br&gt;" style="ellipse;whiteSpace=wrap;html=1;" vertex="1" parent="1">
          <mxGeometry x="354" y="360" width="120" height="50" as="geometry" />
        </mxCell>
      </root>
    </mxGraphModel>
  </diagram>
</mxfile>
